<svg width="494" height="481" viewBox="0 0 494 481" fill="none" xmlns="http://www.w3.org/2000/svg">
<g clip-path="url(#clip0_864_10275)">
<path d="M439.202 463.515C439.667 463.537 440.127 463.415 440.52 463.166C440.914 462.917 441.221 462.553 441.4 462.124C441.58 461.694 441.623 461.22 441.524 460.766C441.425 460.311 441.189 459.898 440.847 459.582L440.691 458.964C440.712 458.914 440.733 458.865 440.753 458.815C441.221 457.709 442.006 456.766 443.009 456.105C444.011 455.443 445.187 455.093 446.388 455.097C447.589 455.102 448.762 455.461 449.759 456.13C450.757 456.799 451.535 457.748 451.995 458.857C453.833 463.285 456.174 467.721 456.75 472.403C457.004 474.473 456.897 476.571 456.434 478.604C460.752 469.184 462.995 458.945 463.009 448.583C463.01 445.982 462.866 443.384 462.576 440.8C462.337 438.681 462.006 436.578 461.582 434.49C459.267 423.158 454.298 412.538 447.082 403.5C443.589 401.594 440.764 398.664 438.989 395.103C438.345 393.824 437.891 392.457 437.639 391.047C438.033 391.099 439.124 385.099 438.827 384.73C439.376 383.897 440.359 383.483 440.958 382.67C443.941 378.627 448.05 379.333 450.195 384.827C454.777 387.14 454.821 390.975 452.01 394.664C450.221 397.011 449.975 400.186 448.406 402.699C448.567 402.906 448.735 403.106 448.896 403.313C451.848 407.108 454.421 411.184 456.577 415.481C456.053 410.667 456.679 405.797 458.404 401.272C460.152 397.054 463.429 393.502 466.314 389.857C467.078 388.877 468.114 388.146 469.293 387.756C470.471 387.365 471.739 387.333 472.936 387.663C474.133 387.993 475.205 388.67 476.017 389.61C476.829 390.549 477.345 391.708 477.498 392.94C477.504 392.994 477.51 393.047 477.516 393.101C477.087 393.343 476.668 393.6 476.257 393.871C475.741 394.216 475.342 394.708 475.111 395.283C474.879 395.859 474.828 396.491 474.962 397.096C475.096 397.702 475.41 398.253 475.862 398.677C476.315 399.101 476.885 399.378 477.498 399.473L477.561 399.482C477.408 401.027 477.138 402.558 476.753 404.062C480.455 418.378 472.463 423.592 461.052 423.826C460.8 423.955 460.555 424.084 460.303 424.207C462.47 430.348 463.829 436.744 464.346 443.235C464.639 447.064 464.622 450.911 464.294 454.738L464.314 454.602C465.141 450.347 467.41 446.508 470.74 443.732C475.686 439.67 482.673 438.173 488.009 434.908C488.576 434.544 489.235 434.349 489.909 434.348C490.583 434.346 491.243 434.537 491.812 434.899C492.38 435.26 492.834 435.776 493.119 436.387C493.404 436.998 493.508 437.677 493.42 438.345L493.398 438.488C492.603 438.812 491.828 439.185 491.079 439.605C490.651 439.847 490.231 440.103 489.821 440.375C489.305 440.719 488.905 441.212 488.674 441.787C488.443 442.363 488.391 442.995 488.525 443.6C488.659 444.206 488.973 444.757 489.426 445.181C489.879 445.605 490.449 445.882 491.062 445.977L491.125 445.986C491.17 445.993 491.208 445.999 491.254 446.006C489.895 449.251 487.987 452.237 485.615 454.835C483.3 467.332 473.359 468.518 462.725 464.878H462.718C461.552 469.949 459.861 474.884 457.674 479.605H439.654C439.589 479.404 439.531 479.198 439.473 478.997C441.141 479.102 442.815 479.003 444.459 478.701C443.122 477.06 441.785 475.406 440.448 473.766C440.418 473.735 440.39 473.703 440.364 473.669C439.686 472.829 439.001 471.996 438.323 471.157L438.323 471.156C438.287 468.582 438.583 466.014 439.202 463.515Z" fill="#F2F2F2"/>
<path d="M240.724 77.3395C241.382 78.3363 242.249 79.1782 243.264 79.8072C244.28 80.4361 245.419 80.837 246.605 80.9821C247.79 81.1272 248.993 81.013 250.13 80.6476C251.267 80.2821 252.311 79.6739 253.19 78.8653L290.655 95.768L297.878 86.5547L253.234 66.8044C251.763 65.4263 249.837 64.6357 247.822 64.5825C245.806 64.5292 243.842 65.2171 242.3 66.5157C240.758 67.8143 239.746 69.6334 239.456 71.6283C239.165 73.6232 239.617 75.6552 240.724 77.3395Z" fill="#A0616A"/>
<path d="M401.508 87.8791L405.224 108.935C405.397 109.918 405.363 110.925 405.124 111.894C404.885 112.862 404.446 113.77 403.835 114.559C403.224 115.348 402.456 116 401.578 116.474C400.7 116.948 399.733 117.233 398.739 117.311L335.6 122.277L261.383 89.0611L270.247 72.2339L334.674 92.636L401.508 87.8791Z" fill="#FB773F"/>
<path d="M393.531 180.687L370.531 229.687L459.008 220.726L440.539 173.687L393.531 180.687Z" fill="#A0616A"/>
<path d="M414.101 462.32L405.712 462.249L401.999 429.138L414.379 429.243L414.101 462.32Z" fill="#A0616A"/>
<path d="M387.231 475.659C387.223 476.654 387.61 477.611 388.307 478.32C389.005 479.029 389.955 479.433 390.949 479.443L407.628 479.582L410.547 473.663L411.62 479.612L417.913 479.669L416.324 458.452L414.134 458.307L405.204 457.691L402.323 457.498L402.272 463.501L388.874 472.589C388.372 472.929 387.96 473.387 387.674 473.921C387.388 474.456 387.236 475.053 387.231 475.659Z" fill="#2F2E41"/>
<path d="M321.266 462.358L313.268 459.825L319.447 427.085L331.251 430.822L321.266 462.358Z" fill="#A0616A"/>
<path d="M291.663 467.214C291.364 468.162 291.453 469.19 291.911 470.073C292.369 470.956 293.158 471.621 294.106 471.922L310.007 476.956L314.537 472.156L313.814 478.158L319.813 480.061L324.528 459.314L322.478 458.531L314.122 455.319L311.425 454.288L309.613 460.011L294.136 464.761C293.556 464.939 293.028 465.256 292.597 465.683C292.167 466.11 291.846 466.635 291.663 467.214Z" fill="#2F2E41"/>
<path d="M454.978 206.946L374.531 221.687C374.531 221.687 361.628 231.339 365.08 234.796C368.531 238.252 369.067 237.717 366.799 239.985C364.531 242.252 359.628 245.284 359.58 247.268C359.531 249.252 323.531 338.252 323.531 338.252C323.531 338.252 327.531 336.252 324.531 339.252C321.531 342.252 321.531 344.731 321.531 344.731L307.531 439.252L330.268 440.591L352.531 354.418L402.191 273.914C402.191 273.914 407.118 345.703 407.325 350.478C407.531 355.252 410.531 349.252 407.531 355.252C404.531 361.252 402.531 357.252 404.531 361.252C406.531 365.252 397.327 446.687 397.327 446.687H418.08L462.589 277.896C462.589 277.896 478.425 229.64 454.978 206.946Z" fill="#2F2E41"/>
<path d="M431.28 71.9347L399.055 68.5864L390.706 79.4257L380.98 84.6059C376.864 86.7981 373.466 90.1295 371.194 94.2016C368.921 98.2738 367.87 102.914 368.165 107.568L379.531 173.687C379.531 173.687 369.93 195.306 376.531 200.687C383.132 206.068 371.428 219.394 385.531 212.687C399.635 205.98 460.531 213.687 460.531 213.687L447.531 176.687L457.243 140.33L458.312 109.844C458.511 104.148 456.821 98.5451 453.504 93.9097C450.186 89.2742 445.429 85.8665 439.972 84.2176L438.614 83.8073L431.28 71.9347Z" fill="#FB773F"/>
<path d="M475.644 47.2303C475.855 56.3133 472.46 65.1083 467.584 72.8333C466.135 68.3235 463.53 64.219 460.814 60.3064C462.183 68.7706 460.725 77.4502 456.664 85.0019C456.521 85.1043 456.372 85.1994 456.22 85.2868C452.245 87.6778 447.205 88.6463 442.906 86.9194C451.79 77.3427 452.92 61.4755 445.472 50.7337C443.363 47.6857 440.636 44.99 439.33 41.5213C437.267 35.9868 439.25 29.8931 440.5 24.1228C441.67 18.7524 441.874 12.3615 438.271 8.4257C438.656 7.87567 439.181 7.43785 439.79 7.1571C440.4 6.87635 441.073 6.76276 441.742 6.82797C443.963 7.14176 445.58 9.07262 446.61 11.0613C447.64 13.0499 448.319 15.254 449.754 16.9716C452.412 20.1866 456.938 20.9467 460.753 22.6411C469.99 26.7557 475.422 37.1234 475.644 47.2303Z" fill="#2F2E41"/>
<path d="M237.651 479.658C237.65 479.815 237.681 479.97 237.74 480.114C237.8 480.259 237.888 480.39 237.998 480.501C238.109 480.611 238.24 480.699 238.385 480.759C238.53 480.818 238.685 480.849 238.841 480.848H492.131C492.447 480.848 492.749 480.723 492.972 480.5C493.196 480.277 493.321 479.974 493.321 479.658C493.321 479.343 493.196 479.04 492.972 478.817C492.749 478.594 492.447 478.468 492.131 478.468H238.841C238.685 478.468 238.53 478.498 238.385 478.558C238.24 478.618 238.109 478.705 237.998 478.816C237.888 478.926 237.8 479.058 237.741 479.202C237.681 479.347 237.65 479.502 237.651 479.658Z" fill="#CCCCCC"/>
<path d="M477.638 257.748C482.609 257.748 486.638 253.719 486.638 248.748C486.638 243.777 482.609 239.748 477.638 239.748C472.668 239.748 468.638 243.777 468.638 248.748C468.638 253.719 472.668 257.748 477.638 257.748Z" fill="#FB773F"/>
<path d="M397.886 42.037C398.414 40.1894 394.776 51.4833 396.531 51.6872C404.528 52.6046 415.505 57.3804 421.075 59.6084C421.326 59.5793 421.576 59.5501 421.82 59.5137C422.417 59.4482 423 59.3536 423.576 59.2444C436.544 56.7906 441.531 36.8692 441.531 36.6872C441.531 35.7917 439.382 11.1942 435.996 10.8302C435.107 10.7337 434.213 10.6851 433.318 10.6846H424.916C423.177 10.3099 421.415 10.0545 419.641 9.9201H419.627C402.711 8.63133 389.374 18.9413 390.62 31.4867C390.628 31.5012 390.643 31.5158 390.65 31.5304C391.011 32.0692 391.329 32.5789 391.609 33.0667C391.882 33.5254 392.111 33.9623 392.31 34.3773C393.851 37.581 389.888 41.6123 392.516 42.3647C396.011 43.3655 383.324 76.2582 397.158 76.2582C390.429 78.1714 396.43 47.1338 397.886 42.037Z" fill="#2F2E41"/>
<path d="M412.986 61.3369C423.973 61.3369 432.88 52.4303 432.88 41.4434C432.88 30.4564 423.973 21.5498 412.986 21.5498C401.999 21.5498 393.093 30.4564 393.093 41.4434C393.093 52.4303 401.999 61.3369 412.986 61.3369Z" fill="#A0616A"/>
<path d="M390.621 32.5715C390.953 32.7463 391.277 32.9064 391.609 33.0666C391.956 33.2341 392.303 33.4016 392.649 33.5544C399.311 36.5761 404.733 36.911 408.023 32.5715C408.111 30.2881 408.624 28.0412 409.535 25.9457C409.374 28.2874 409.991 30.6167 411.291 32.5715H417.915C424.739 37.1003 428.243 37.5736 423.507 52.4416C422.186 56.5846 416.936 80.6923 419.002 84.2674C419.599 84.2018 425.956 57.7964 426.531 57.6872C439.5 55.2335 447.74 33.8675 446.685 32.6589C446.69 29.2218 445.9 25.8301 444.376 22.7493C442.448 18.8461 439.443 15.5766 435.716 13.3276C433.494 12.2503 431.178 11.3801 428.796 10.7282C428.737 10.7136 428.686 10.699 428.627 10.6845C427.896 10.4879 427.151 10.3059 426.406 10.153C424.867 9.82796 423.31 9.59215 421.744 9.44672C421.633 9.43943 421.523 9.43213 421.419 9.43213C420.794 9.43359 420.18 9.60201 419.641 9.92C419.634 9.92 419.634 9.92725 419.627 9.92725C419.242 10.1522 418.906 10.4517 418.638 10.8082C418.167 11.4082 417.912 12.1497 417.915 12.9125H410.538C410.265 12.9125 409.992 12.9198 409.719 12.9343C404.796 13.1026 400.113 15.102 396.586 18.5414C393.059 21.9808 390.942 26.6126 390.65 31.5303C390.628 31.8798 390.621 32.222 390.621 32.5715Z" fill="#2F2E41"/>
<path d="M434.117 26.212C441.355 26.212 447.223 20.3442 447.223 13.106C447.223 5.86775 441.355 0 434.117 0C426.878 0 421.011 5.86775 421.011 13.106C421.011 20.3442 426.878 26.212 434.117 26.212Z" fill="#2F2E41"/>
<path d="M477.739 252.459C478.379 251.45 478.792 250.315 478.95 249.131C479.107 247.947 479.006 246.743 478.652 245.602C478.299 244.461 477.702 243.411 476.902 242.524C476.103 241.636 475.121 240.933 474.023 240.463L474.088 199.361L462.723 196.548L463.003 245.366C462.349 247.272 462.417 249.353 463.194 251.213C463.972 253.073 465.404 254.583 467.221 255.458C469.037 256.332 471.111 256.51 473.05 255.957C474.989 255.404 476.657 254.16 477.739 252.459Z" fill="#A0616A"/>
<path d="M421.463 101.477L439.148 89.4589C439.973 88.8982 440.906 88.5162 441.887 88.3375C442.869 88.1587 443.876 88.1872 444.846 88.421C445.816 88.6548 446.726 89.0888 447.518 89.6951C448.31 90.3014 448.967 91.0667 449.446 91.9417L479.849 147.5L479.966 228.811L460.984 227.621L453.191 160.492L421.463 101.477Z" fill="#FB773F"/>
</g>
<defs>
<clipPath id="clip0_864_10275">
<rect width="493.461" height="480.848" fill="white"/>
</clipPath>
</defs>
</svg>
